/* XPM */
static char * connection_xpm[] = {
"16 16 85 1",
" 	c None",
".	c #000000",
"+	c #FEFEFE",
"@	c #FDFDFD",
"#	c #E0E0E0",
"$	c #C1C1C1",
"%	c #F1F1F1",
"&	c #C3C3C3",
"*	c #FBFBFB",
"=	c #A8A8A8",
"-	c #ADADAD",
";	c #767676",
">	c #5D5D5D",
",	c #404040",
"'	c #F0F0F0",
")	c #E2E2E2",
"!	c #858585",
"~	c #4B4B49",
"{	c #161616",
"]	c #EFEFEF",
"^	c #EEEEEE",
"/	c #C5C5C5",
"(	c #B8BEBF",
"_	c #455D69",
":	c #3D5565",
"<	c #364E5D",
"[	c #C2C7CA",
"}	c #ECECEC",
"|	c #C4C4C4",
"1	c #455B65",
"2	c #E3EEF2",
"3	c #BACBE1",
"4	c #738EB6",
"5	c #324961",
"6	c #AFB7BB",
"7	c #EBEBEB",
"8	c #EDEDED",
"9	c #3D535F",
"0	c #9BAEBD",
"a	c #D4E2EA",
"b	c #C7D8E4",
"c	c #879FB4",
"d	c #4B637A",
"e	c #384E59",
"f	c #EAEAEA",
"g	c #394F5B",
"h	c #ADC0D8",
"i	c #B3C6D6",
"j	c #A6BDD0",
"k	c #66849B",
"l	c #607881",
"m	c #334955",
"n	c #E8E8E8",
"o	c #C0C0C0",
"p	c #3B525D",
"q	c #6C8A9E",
"r	c #5A7A99",
"s	c #6D87A3",
"t	c #46617B",
"u	c #909DA4",
"v	c #354B57",
"w	c #E7E7E7",
"x	c #BFBFBF",
"y	c #B3B9BC",
"z	c #304B53",
"A	c #3C586E",
"B	c #617784",
"C	c #7E8D9A",
"D	c #253A46",
"E	c #A0A8AC",
"F	c #E5E5E5",
"G	c #BEBEBE",
"H	c #AAAEB0",
"I	c #243949",
"J	c #1B333C",
"K	c #233B46",
"L	c #949C9F",
"M	c #E4E4E4",
"N	c #BDBDBD",
"O	c #E6E6E6",
"P	c #E3E3E3",
"Q	c #BBBBBB",
"R	c #C2C2C2",
"S	c #BCBCBC",
"T	c #A0A0A0",
"  .........     ",
" .++++++@#$.    ",
" .+%%%%%%&*=.   ",
" .+%%%%%%-;>,.  ",
" .+%%%%%')!~{.  ",
" .+%]]]]]]^^/.  ",
" .+]](_:<[^}|.  ",
" .@^[1234567&.  ",
" .@890abcdef$.  ",
" .@7ghijklmno.  ",
" .@fpqrstuvwx.  ",
" .@nyzABCDEFG.  ",
" .@wwHIJKLMMN.  ",
" .@OFFFMMPPPQ.  ",
" .RNNNSSQQQQT.  ",
"  ...........   "};
