/* XPM */
static char * error_xpm[] = {
"12 12 3 1",
".	c none",
"+	c #C90000",
"@	c #000000",
".....++.....",
".....++@....",
".....++@....",
".....++@....",
".....++@....",
".....++@....",
".....+@@....",
".....+@.....",
"......@.....",
".....++.....",
".....++@....",
"......@@...."};
